<svg xmlns="http://www.w3.org/2000/svg" width="17px" height="21px" viewBox="0 0 17 21" fill="none" class="panda-flex-sh_0 panda-h_full panda-w_full"><path d="M11.0718 3.70342C11.691 2.95595 12.1288 1.93086 12.1288 0.905766C12.1288 0.756273 12.1181 0.617459 12.0861 0.5C11.0825 0.542712 9.87599 1.17272 9.14997 2.02696C8.5841 2.66765 8.05026 3.70342 8.05026 4.72851C8.05026 4.88868 8.08229 5.03817 8.09297 5.09156C8.15703 5.10224 8.2638 5.11292 8.35989 5.11292C9.26741 5.11292 10.3991 4.51495 11.0718 3.70342ZM11.7764 5.33716C10.271 5.33716 9.0432 6.25547 8.2638 6.25547C7.42033 6.25547 6.33131 5.39055 5.00739 5.39055C2.51971 5.39055 0 7.45142 0 11.3275C0 13.7515 0.928876 16.3142 2.08196 17.9586C3.0749 19.3468 3.93972 20.5 5.1889 20.5C6.4274 20.5 6.97191 19.6778 8.50936 19.6778C10.0682 19.6778 10.4098 20.4786 11.7764 20.4786C13.1324 20.4786 14.0399 19.24 14.8834 18.012C15.8443 16.6025 16.2393 15.2357 16.25 15.1716C16.1753 15.1503 13.5808 14.0932 13.5808 11.1247C13.5808 8.56193 15.6201 7.4087 15.7375 7.32328C14.3922 5.39055 12.3423 5.33716 11.7764 5.33716Z" fill="currentColor"></path></svg>