<svg xmlns="http://www.w3.org/2000/svg" width="32" height="32" viewBox="0 0 17 16" fill="none" class="panda-flex-sh_0 panda-h_full panda-w_full"><path d="M1.75052 1.42685C1.59183 1.58903 1.5 1.84154 1.5 2.16854V13.8326C1.5 14.1596 1.59183 14.4121 1.75052 14.5743L1.78968 14.6099L8.4841 8.07637V7.9221L1.78968 1.38861L1.75052 1.42685Z" fill="currentColor"></path><path d="M13.1465 10.2549L10.9175 8.07595V7.92168L13.1492 5.74275L13.1991 5.7711L15.8421 7.23932C16.5963 7.65599 16.5963 8.34164 15.8421 8.76095L13.1991 10.2265L13.1465 10.2549Z" fill="currentColor"></path><path d="M11.9801 11.4437L9.69843 9.21594L2.96484 15.791C3.21536 16.0481 3.62389 16.0791 4.08846 15.822L11.9801 11.4437Z" fill="currentColor"></path><path d="M11.9801 4.55402L4.08846 0.175728C3.62389 -0.0787549 3.21536 -0.0477697 2.96484 0.20935L9.69843 6.78174L11.9801 4.55402Z" fill="currentColor"></path></svg>