<svg aria-hidden="true" fill="none" height="36" viewBox="0 0 150 24" width="150" xmlns="http://www.w3.org/2000/svg"><g opacity="0.63"><path d="M12 0L14.6941 8.2918H23.4126L16.3592 13.4164L19.0534 21.7082L12 16.5836L4.94657 21.7082L7.64073 13.4164L0.58732 8.2918H9.30581L12 0Z" fill="#808080"></path><path d="M43.5019 0L46.1961 8.2918H54.9146L47.8612 13.4164L50.5553 21.7082L43.5019 16.5836L36.4485 21.7082L39.1427 13.4164L32.0893 8.2918H40.8078L43.5019 0Z" fill="#808080"></path><path d="M74.998 0L77.6922 8.2918H86.4107L79.3573 13.4164L82.0514 21.7082L74.998 16.5836L67.9446 21.7082L70.6388 13.4164L63.5854 8.2918H72.3039L74.998 0Z" fill="#808080"></path><path d="M106.5 0L109.194 8.2918H117.913L110.859 13.4164L113.553 21.7082L106.5 16.5836L99.4466 21.7082L102.141 13.4164L95.0873 8.2918H103.806L106.5 0Z" fill="#808080"></path><path d="M138.001 0L140.696 8.2918H149.414L142.361 13.4164L145.055 21.7082L138.001 16.5836L130.948 21.7082L133.642 13.4164L126.589 8.2918H135.307L138.001 0Z" fill="#808080"></path></g></svg>