<svg aria-hidden="true" fill="none" height="36" viewBox="0 0 53 53" width="36" xmlns="http://www.w3.org/2000/svg"><path d="M52.9984 26.572C52.9984 41.1678 41.1661 53 26.5703 53C11.9745 53 0.142289 41.1678 0.142289 26.572C0.142289 11.9762 11.9745 0.143933 26.5703 0.143933C41.1661 0.143933 52.9984 11.9762 52.9984 26.572Z" fill="#CCCCCC"></path><path clip-rule="evenodd" d="M29.1955 0.573672C28.3587 0.493607 27.5104 0.452644 26.6525 0.452644C24.2537 0.452644 21.9302 0.772904 19.7229 1.37274L22.682 4.32892H25.4365L29.1955 0.573672ZM2.26196 16.9511C4.56967 11.1308 8.92643 6.3354 14.4492 3.44242L16.2547 5.24621V8.91536H20.8456V12.5845L15.3366 18.0882H8.90929V20.8401L11.6638 23.5919H18.8108L22.4835 27.2611H28.9107V33.8892L24.3198 38.4757V42.1448L18.8108 47.6485H14.4184V37.3513L8.90929 31.8475V27.2611L3.4002 21.7574V18.0882L2.26196 16.9511ZM35.5365 1.98712C45.6368 5.60318 52.8579 15.2095 52.8579 26.4918C52.8579 34.7828 48.9582 42.1688 42.882 46.9375V37.3513L39.2093 33.6821V29.0957L46.5547 21.7574V18.0882H41.0456L38.2911 15.3364H32.782V8.91536L35.5365 6.1635V1.98712Z" fill="#808080" fill-rule="evenodd"></path></svg>