<svg aria-hidden="true" fill="none" height="36" viewBox="0 0 113 36" width="113" xmlns="http://www.w3.org/2000/svg"><path d="M98.1012 0.00705956C97.7043 -0.0425446 97.5059 0.172407 97.539 0.552706C97.6878 1.54479 98.2334 2.65262 98.8948 3.34708C99.5893 4.12421 100.714 4.65332 101.722 4.70292C102.053 4.71946 102.235 4.52104 102.202 4.19035C102.086 3.23133 101.54 2.09044 100.846 1.41251C100.151 0.734588 99.0602 0.155872 98.1012 0.00705956ZM106.633 1.67707C106.418 1.37944 106.121 1.34637 105.856 1.644C105.228 2.42113 104.781 3.54549 104.715 4.48797C104.632 5.44699 104.963 6.65402 105.509 7.49729C105.691 7.76185 105.972 7.79492 106.22 7.56343C106.947 6.8359 107.443 5.69501 107.46 4.68639C107.526 3.72737 107.195 2.52034 106.633 1.67707ZM101.755 6.76977C100.78 6.57135 99.5727 6.72016 98.6964 7.11699C98.3492 7.26581 98.283 7.56343 98.5311 7.86106C99.1594 8.58859 100.234 9.23344 101.21 9.44839C102.185 9.71295 103.425 9.5476 104.302 9.03502C104.566 8.85314 104.616 8.57205 104.417 8.34056C103.806 7.57997 102.731 6.95165 101.755 6.76977ZM110.304 7.19967C110.122 6.86897 109.808 6.80283 109.543 7.03432C108.849 7.69571 108.22 8.75393 108.022 9.71295C107.807 10.6885 107.956 11.9121 108.386 12.7719C108.551 13.0695 108.816 13.1522 109.064 12.9538C109.89 12.3585 110.535 11.3003 110.717 10.2917C110.899 9.33265 110.734 8.10908 110.304 7.19967ZM104.748 11.5318C103.855 11.2011 102.632 11.1845 101.689 11.4491C101.325 11.5648 101.226 11.8459 101.425 12.1436C101.904 12.9868 102.896 13.7805 103.855 14.1443C104.798 14.5246 106.038 14.5246 106.98 14.1443C107.278 14.012 107.377 13.7309 107.195 13.4663C106.666 12.6065 105.691 11.8625 104.748 11.5318ZM112.354 14.9214C112.321 14.5246 112.04 14.3757 111.693 14.5246C110.816 14.8718 109.874 15.6655 109.345 16.4922C108.816 17.352 108.535 18.559 108.634 19.5015C108.667 19.8322 108.931 19.9975 109.229 19.8983C110.188 19.6338 111.164 18.8567 111.66 17.9638C112.189 17.104 112.453 15.8969 112.354 14.9214ZM105.658 17.0874C104.93 16.4591 103.789 16.0292 102.797 15.9465C102.433 15.93 102.235 16.178 102.284 16.5418C102.499 17.5008 103.161 18.5756 103.905 19.2204C104.649 19.8818 105.823 20.3282 106.848 20.2952C107.162 20.2786 107.328 20.0472 107.278 19.7495C107.08 18.774 106.435 17.7158 105.658 17.0874ZM102.896 20.9566C102.516 20.8243 102.268 20.9896 102.268 21.3865C102.202 22.362 102.566 23.536 103.111 24.3793C103.64 25.2391 104.682 25.9501 105.674 26.1815C106.005 26.2311 106.22 26.0658 106.253 25.7516C106.286 24.7265 105.939 23.5525 105.343 22.7754C104.781 21.9983 103.806 21.2707 102.896 20.9566ZM112.371 22.3786C112.437 21.9983 112.238 21.7833 111.842 21.8329C110.882 21.9486 109.791 22.4778 109.08 23.1557C108.369 23.8005 107.791 24.8753 107.625 25.8839C107.576 26.2146 107.757 26.4296 108.088 26.413C109.113 26.38 110.254 25.8839 110.949 25.1564C111.66 24.4619 112.238 23.3376 112.371 22.3786ZM100.648 24.28C100.366 23.999 100.052 24.0486 99.9034 24.4123C99.457 25.3052 99.2917 26.5453 99.4901 27.4878C99.6554 28.5129 100.3 29.5877 101.094 30.1664C101.375 30.3648 101.64 30.3152 101.772 30.0011C102.218 29.1578 102.367 27.9177 102.152 26.9256C101.97 25.9831 101.358 24.9249 100.648 24.28ZM97.2744 27.6697C97.0595 27.3555 96.7618 27.339 96.5138 27.6366C95.8524 28.3972 95.3729 29.5381 95.3068 30.4971C95.2076 31.5223 95.5548 32.7293 96.1997 33.4899C96.4146 33.7544 96.6792 33.7544 96.8941 33.5064C97.539 32.7954 98.0019 31.638 98.0681 30.6294C98.1012 29.6704 97.8035 28.4799 97.2744 27.6697ZM105.41 28.7775C104.484 29.0917 103.508 29.8522 102.979 30.6955C102.797 30.9931 102.88 31.2412 103.194 31.3569C104.136 31.7537 105.393 31.7537 106.319 31.3734C107.228 31.0428 108.204 30.2656 108.75 29.4223C108.948 29.0917 108.849 28.8106 108.485 28.6948C107.559 28.4137 106.319 28.4468 105.41 28.7775ZM100.747 33.2584C99.7546 33.3245 98.6137 33.8041 97.8862 34.482C97.6382 34.7135 97.6547 34.9946 97.9193 35.1764C98.7295 35.7882 99.9365 36.1024 100.945 35.9701C101.921 35.904 103.062 35.3914 103.806 34.7135C104.103 34.4489 104.054 34.1347 103.706 33.9363C102.896 33.4403 101.706 33.1757 100.747 33.2584Z" fill="#999999"></path><path d="M14.282 0.00705956C14.6788 -0.0425446 14.8773 0.172407 14.8442 0.552706C14.6954 1.54479 14.1497 2.65262 13.4883 3.34708C12.7939 4.12421 11.6695 4.65332 10.6609 4.70292C10.3302 4.71946 10.1483 4.52104 10.1814 4.19035C10.2971 3.23133 10.8428 2.09044 11.5372 1.41251C12.2317 0.734588 13.323 0.155872 14.282 0.00705956ZM5.75008 1.67707C5.96504 1.37944 6.26266 1.34637 6.52722 1.644C7.15554 2.42113 7.60198 3.54549 7.66811 4.48797C7.75079 5.44699 7.42009 6.65402 6.87445 7.49729C6.69257 7.76185 6.41147 7.79492 6.16345 7.56343C5.43593 6.83591 4.93988 5.69501 4.92335 4.68639C4.85721 3.72737 5.1879 2.52034 5.75008 1.67707ZM10.6278 6.76977C11.6034 6.57135 12.8104 6.72016 13.6868 7.117C14.034 7.26581 14.1001 7.56343 13.8521 7.86106C13.2238 8.58859 12.149 9.23344 11.1735 9.44839C10.1979 9.71295 8.95782 9.5476 8.08148 9.03502C7.81693 8.85314 7.76732 8.57205 7.96574 8.34057C8.57753 7.57997 9.65228 6.95165 10.6278 6.76977ZM2.07938 7.19967C2.26126 6.86897 2.57542 6.80283 2.83997 7.03432C3.53443 7.69571 4.16275 8.75393 4.36117 9.71295C4.57612 10.6885 4.42731 11.9121 3.9974 12.7719C3.83206 13.0695 3.5675 13.1522 3.31948 12.9538C2.49274 12.3585 1.84789 11.3003 1.66601 10.2917C1.48413 9.33265 1.64947 8.10908 2.07938 7.19967ZM7.63505 11.5318C8.52792 11.2011 9.75149 11.1845 10.694 11.4491C11.0577 11.5648 11.1569 11.8459 10.9585 12.1436C10.479 12.9868 9.48693 13.7805 8.52792 14.1443C7.58544 14.5246 6.34534 14.5246 5.40286 14.1443C5.10523 14.012 5.00602 13.7309 5.1879 13.4663C5.71702 12.6065 6.69257 11.8625 7.63505 11.5318ZM0.0290683 14.9214C0.0621377 14.5246 0.343228 14.3757 0.690457 14.5246C1.5668 14.8718 2.50928 15.6655 3.03839 16.4922C3.5675 17.352 3.84859 18.559 3.74938 19.5015C3.71631 19.8322 3.45176 19.9976 3.15413 19.8983C2.19512 19.6338 1.21957 18.8567 0.723527 17.9638C0.194416 17.104 -0.0701401 15.8969 0.0290683 14.9214ZM6.72563 17.0874C7.45316 16.4591 8.59406 16.0292 9.58614 15.9465C9.94991 15.93 10.1483 16.178 10.0987 16.5418C9.88377 17.5008 9.22238 18.5756 8.47832 19.2204C7.73425 19.8818 6.56029 20.3282 5.53513 20.2952C5.22097 20.2786 5.05563 20.0472 5.10523 19.7495C5.30365 18.774 5.9485 17.7158 6.72563 17.0874ZM9.48694 20.9566C9.86723 20.8243 10.1153 20.9896 10.1153 21.3865C10.1814 22.362 9.81763 23.536 9.27198 24.3793C8.74287 25.2391 7.70118 25.9501 6.7091 26.1815C6.37841 26.2311 6.16345 26.0658 6.13038 25.7516C6.09731 24.7265 6.44454 23.5525 7.03979 22.7754C7.60198 21.9983 8.57753 21.2707 9.48694 20.9566ZM0.0125334 22.3786C-0.0536056 21.9983 0.144811 21.7833 0.541645 21.8329C1.50066 21.9487 2.59195 22.4778 3.30295 23.1557C4.01394 23.8005 4.59265 24.8753 4.758 25.8839C4.80761 26.2146 4.62572 26.4296 4.29503 26.413C3.26988 26.38 2.12898 25.8839 1.43452 25.1564C0.723527 24.4619 0.144811 23.3376 0.0125334 22.3786ZM11.7357 24.28C12.0168 23.999 12.3309 24.0486 12.4797 24.4123C12.9262 25.3052 13.0915 26.5453 12.8931 27.4878C12.7277 28.5129 12.0829 29.5877 11.2892 30.1664C11.0081 30.3648 10.7436 30.3152 10.6113 30.0011C10.1649 29.1578 10.016 27.9177 10.231 26.9256C10.4129 25.9831 11.0247 24.9249 11.7357 24.28ZM15.1087 27.6697C15.3237 27.3555 15.6213 27.339 15.8693 27.6366C16.5307 28.3972 17.0102 29.5381 17.0764 30.4971C17.1756 31.5223 16.8284 32.7293 16.1835 33.4899C15.9686 33.7545 15.704 33.7545 15.489 33.5064C14.8442 32.7954 14.3812 31.638 14.3151 30.6294C14.282 29.6704 14.5796 28.4799 15.1087 27.6697ZM6.97366 28.7775C7.8996 29.0917 8.87515 29.8523 9.40426 30.6955C9.58614 30.9932 9.50347 31.2412 9.18931 31.3569C8.24683 31.7537 6.99019 31.7537 6.06425 31.3734C5.15484 31.0428 4.17929 30.2656 3.63364 29.4223C3.43522 29.0917 3.53443 28.8106 3.8982 28.6948C4.82414 28.4137 6.06425 28.4468 6.97366 28.7775ZM11.6365 33.2584C12.6285 33.3245 13.7694 33.8041 14.497 34.482C14.745 34.7135 14.7284 34.9946 14.4639 35.1764C13.6537 35.7882 12.4467 36.1024 11.438 35.9701C10.4625 35.904 9.32159 35.3914 8.57752 34.7135C8.2799 34.4489 8.3295 34.1348 8.67673 33.9363C9.48693 33.4403 10.6774 33.1757 11.6365 33.2584Z" fill="#999999"></path><path d="M49.1923 16.2847V9.27974H54.2735V10.6205H50.7468V12.107H54.1278V13.4186H50.7468V14.9439H54.2444V16.2847H49.1923ZM57.6623 16.3915C56.4478 16.3915 55.4763 15.5171 55.4763 13.7878C55.4763 12.0292 56.4673 11.1451 57.7789 11.1451C58.3424 11.1451 58.7893 11.3103 59.0808 11.6115V9.27974H60.5575V16.2847H59.1293V15.7503C58.8864 16.1389 58.3618 16.3915 57.6623 16.3915ZM56.9628 13.7586C56.9628 14.633 57.3611 15.1577 58.0315 15.1577C58.731 15.1577 59.0808 14.701 59.0808 14.0987V13.3991C59.0808 12.7773 58.7116 12.3596 58.0898 12.3596C57.3902 12.3596 56.9628 12.8648 56.9628 13.7586ZM62.0798 16.2847V11.2423H63.5566V16.2847H62.0798ZM62.0604 10.5525V9.32832H63.5857V10.5525H62.0604ZM67.3159 16.2847C65.9363 16.2847 65.3825 15.7697 65.3825 14.3318V12.515H64.6247V11.2423H65.3825V9.99869H66.8593V11.2423H68.2292V12.515H66.8593V14.3027C66.8593 14.837 67.0924 15.0022 67.5491 15.0022H68.2389V16.2847H67.3159ZM71.7424 16.3915C70.1588 16.3915 69.1678 15.4006 69.1678 13.7586C69.1678 12.1167 70.1588 11.1451 71.7424 11.1451C73.326 11.1451 74.3365 12.1167 74.3365 13.7586C74.3365 15.4006 73.326 16.3915 71.7424 16.3915ZM70.6543 13.7586C70.6543 14.6913 71.072 15.1771 71.7424 15.1771C72.4128 15.1771 72.85 14.6913 72.85 13.7586C72.85 12.8259 72.4128 12.3596 71.7424 12.3596C71.072 12.3596 70.6543 12.8259 70.6543 13.7586ZM75.591 16.2847V11.2423H77.0192V11.8544C77.3884 11.3589 77.9131 11.2423 78.36 11.2423H78.7389V12.5345H78.2725C77.3981 12.5345 77.0678 12.7871 77.0678 13.4186V16.2847H75.591ZM81.7503 16.3915C80.4776 16.3915 79.6615 15.8475 79.506 14.8953L80.8371 14.633C80.9342 15.0508 81.2548 15.2937 81.7892 15.2937C82.3624 15.2937 82.6053 15.1285 82.6053 14.8468C82.6053 14.5844 82.4693 14.4776 81.8864 14.361L81.1868 14.225C80.2056 14.0307 79.6518 13.642 79.6518 12.7579C79.6518 11.6989 80.5456 11.1451 81.8086 11.1451C82.9745 11.1451 83.8197 11.6892 83.9752 12.6122L82.683 12.8745C82.6053 12.5053 82.343 12.2333 81.7795 12.2333C81.2646 12.2333 81.0119 12.4082 81.0119 12.6705C81.0119 12.9328 81.1868 13.03 81.6823 13.1174L82.3236 13.234C83.3534 13.4186 83.9752 13.8266 83.9752 14.7302C83.9752 15.7309 83.2077 16.3915 81.7503 16.3915ZM85.0537 11.6892C85.6366 11.5823 85.8989 11.3492 85.8989 10.912V10.8148H85.2286V9.27974H86.7636V10.8148C86.7636 11.8155 86.2196 12.3596 85.18 12.4762L85.0537 11.6892ZM52.311 26.3915C50.261 26.3915 48.9008 25.1674 48.9008 22.7871C48.9008 20.3387 50.329 19.1826 52.3207 19.1826C54.2055 19.1826 55.2159 20.057 55.5074 21.5435L53.9529 21.7864C53.7489 21.0771 53.2825 20.5622 52.3207 20.5622C51.2228 20.5622 50.4845 21.3492 50.4845 22.7871C50.4845 24.1958 51.1937 25.0119 52.3013 25.0119C53.302 25.0119 53.778 24.5067 53.9529 23.7683L55.5074 24.0209C55.2062 25.5463 54.2055 26.3915 52.311 26.3915ZM56.8487 26.2847V19.2797H58.3254V21.8349C58.6461 21.4366 59.161 21.1451 59.8994 21.1451C60.9389 21.1451 61.6773 21.7475 61.6773 22.9036V26.2847H60.2006V23.234C60.2006 22.651 59.8799 22.3887 59.297 22.3887C58.7918 22.3887 58.3254 22.6802 58.3254 23.2145V26.2847H56.8487ZM65.4643 26.3915C63.8806 26.3915 62.8896 25.4006 62.8896 23.7586C62.8896 22.1167 63.8806 21.1451 65.4643 21.1451C67.0479 21.1451 68.0583 22.1167 68.0583 23.7586C68.0583 25.4006 67.0479 26.3915 65.4643 26.3915ZM64.3761 23.7586C64.3761 24.6913 64.7939 25.1771 65.4643 25.1771C66.1346 25.1771 66.5718 24.6913 66.5718 23.7586C66.5718 22.8259 66.1346 22.3596 65.4643 22.3596C64.7939 22.3596 64.3761 22.8259 64.3761 23.7586ZM69.3129 26.2847V21.2423H70.7897V26.2847H69.3129ZM69.2935 20.5525V19.3283H70.8188V20.5525H69.2935ZM74.5781 26.3915C73.0916 26.3915 72.0521 25.5074 72.0521 23.7489C72.0521 22.0292 73.0916 21.1451 74.5781 21.1451C75.9092 21.1451 76.6961 21.8058 76.8904 22.8939L75.5497 23.1174C75.4331 22.6899 75.1805 22.3596 74.5781 22.3596C73.9272 22.3596 73.5386 22.8454 73.5386 23.7489C73.5386 24.6622 73.9175 25.1771 74.5781 25.1771C75.1805 25.1771 75.4234 24.837 75.54 24.4096L76.8904 24.6233C76.6864 25.7212 75.9092 26.3915 74.5781 26.3915ZM80.196 26.3915C78.7192 26.3915 77.7671 25.4783 77.7671 23.778C77.7671 22.0778 78.8358 21.1451 80.2834 21.1451C81.6728 21.1451 82.5957 22.0195 82.5957 23.6129C82.5957 23.8169 82.586 24.0015 82.5666 24.1084H79.1564C79.2147 24.8662 79.6519 25.2451 80.2349 25.2451C80.7789 25.2451 81.0607 24.9633 81.187 24.6233L82.4694 24.8565C82.2363 25.6532 81.5562 26.3915 80.196 26.3915ZM79.1856 23.1951H81.2356C81.1773 22.6705 80.8567 22.2624 80.264 22.2624C79.7102 22.2624 79.3119 22.5927 79.1856 23.1951Z" fill="#999999"></path><path d="M37.773 16.2091C37.7829 15.4399 37.9872 14.6856 38.3669 14.0166C38.7467 13.3476 39.2894 12.7855 39.9448 12.3826C39.5285 11.788 38.9792 11.2987 38.3407 10.9535C37.7022 10.6083 36.992 10.4168 36.2665 10.3941C34.7189 10.2316 33.2186 11.3201 32.43 11.3201C31.6261 11.3201 30.4119 10.4102 29.1044 10.4371C28.2586 10.4644 27.4344 10.7103 26.712 11.1509C25.9896 11.5915 25.3936 12.2117 24.9821 12.9511C23.1998 16.037 24.5292 20.5722 26.2366 23.0666C27.0908 24.288 28.0892 25.6524 29.3955 25.604C30.6738 25.551 31.1513 24.7889 32.6943 24.7889C34.223 24.7889 34.6709 25.604 36.0038 25.5733C37.3755 25.551 38.2397 24.3464 39.064 23.1134C39.6777 22.2431 40.15 21.2812 40.4634 20.2634C39.6664 19.9263 38.9864 19.3621 38.5079 18.6412C38.0295 17.9202 37.7739 17.0743 37.773 16.2091Z" fill="#999999"></path><path d="M35.2555 8.75357C36.0034 7.85574 36.3719 6.70174 36.2827 5.53662C35.14 5.65663 34.0846 6.20273 33.3266 7.06611C32.9559 7.48789 32.6721 7.97858 32.4912 8.51013C32.3104 9.04168 32.236 9.60367 32.2725 10.164C32.844 10.1698 33.4094 10.046 33.9261 9.80166C34.4428 9.55736 34.8974 9.199 35.2555 8.75357Z" fill="#999999"></path></svg>